<?xml version="1.0" encoding="utf-8"?>
<!-- Generator: Adobe Illustrator 18.0.0, SVG Export Plug-In . SVG Version: 6.00 Build 0)  -->
<!DOCTYPE svg PUBLIC "-//W3C//DTD SVG 1.1//EN" "http://www.w3.org/Graphics/SVG/1.1/DTD/svg11.dtd">
<svg version="1.1" xmlns="http://www.w3.org/2000/svg" xmlns:xlink="http://www.w3.org/1999/xlink" x="0px" y="0px"
	 viewBox="0 0 152.1 95.2" style="enable-background:new 0 0 152.1 95.2;" xml:space="preserve">
<g>
	
		<rect id="trigger-logo" x="0.5" y="0.5" style="opacity:0.2;fill:none;stroke:#808080;stroke-miterlimit:10;" width="151.1" height="94.2"/>
	<g id="logo">
		<path id="logo-center_3_" style="fill:#0ADA7F;" d="M75.2,19.5c-15.4,0-27.9,12.5-27.9,27.9s12.5,27.9,27.9,27.9
			s27.9-12.5,27.9-27.9S90.6,19.5,75.2,19.5z M75.2,60.3c-7.1,0-12.9-5.8-12.9-12.9s5.8-12.9,12.9-12.9c7.1,0,12.9,5.8,12.9,12.9
			S82.4,60.3,75.2,60.3z"/>
		<path id="logo-left_3_" style="fill:#FFAA0A;" d="M37.6,47.4c0-12.1,7.7-26.3,18.6-30.2c0.9-0.3,0.7-1.6-0.3-1.6c0,0,0,0,0,0
			c-15.4,0-27.9,16.4-27.9,31.8s12.5,31,27.9,31c0,0,0,0,0,0c0.9,0,1.1-1.3,0.3-1.6C45.3,72.9,37.6,59.5,37.6,47.4z"/>
		<path id="logo-right_3_" style="fill:#FFAA0A;" d="M114.5,47.8c0,12.1-7.7,26.3-18.6,30.2c-0.9,0.3-0.7,1.6,0.3,1.6c0,0,0,0,0,0
			c15.4,0,27.9-16.4,27.9-31.8s-12.5-31-27.9-31c0,0,0,0,0,0c-0.9,0-1.1,1.3-0.3,1.6C106.7,22.3,114.5,35.7,114.5,47.8z"/>
	</g>
</g>
</svg>
