<?xml version="1.0" encoding="utf-8"?>
<!-- Generator: Adobe Illustrator 18.0.0, SVG Export Plug-In . SVG Version: 6.00 Build 0)  -->
<!DOCTYPE svg PUBLIC "-//W3C//DTD SVG 1.1//EN" "http://www.w3.org/Graphics/SVG/1.1/DTD/svg11.dtd">
<svg version="1.1" xmlns="http://www.w3.org/2000/svg" xmlns:xlink="http://www.w3.org/1999/xlink" x="0px" y="0px"
	 viewBox="0 0 139.4 92.7" style="enable-background:new 0 0 139.4 92.7;" xml:space="preserve">
<g id="trigger-logo">
	<path id="logo-center" style="fill:#03C87F;" d="M69,5.6c-22.3,0-40.4,18.1-40.4,40.4S46.7,86.5,69,86.5s40.4-18.1,40.4-40.4
		S91.4,5.6,69,5.6z M69,64.8c-10.4,0-18.8-8.4-18.8-18.8S58.7,27.3,69,27.3c10.4,0,18.8,8.4,18.8,18.8S79.4,64.8,69,64.8z"/>
	<path id="logo-left" style="fill:#FFAA0A;" d="M14,46.1C14,28.5,25.2,7.9,40.9,2.3C42.2,1.9,41.8,0,40.5,0c0,0,0,0-0.1,0
		C18.1,0,0,23.7,0,46.1S18.1,91,40.4,91c0,0,0,0,0.1,0c1.3,0,1.6-1.9,0.4-2.3C25.2,83.1,14,63.6,14,46.1z"/>
	<path id="logo-right" style="fill:#FFAA0A;" d="M125.4,46.6c0,17.6-11.2,38.2-26.9,43.7c-1.3,0.4-0.9,2.3,0.4,2.3c0,0,0,0,0.1,0
		c22.3,0,40.4-23.7,40.4-46.1S121.3,1.7,99,1.7c0,0,0,0-0.1,0c-1.3,0-1.6,1.9-0.4,2.3C114.2,9.6,125.4,29.1,125.4,46.6z"/>
</g>
</svg>
