<svg xmlns="http://www.w3.org/2000/svg" viewBox="0 0 139.4 92.7"><path d="M69 5.6C46.7 5.6 28.6 23.7 28.6 46S46.7 86.5 69 86.5s40.4-18.1 40.4-40.4S91.4 5.6 69 5.6zm0 59.2c-10.4 0-18.8-8.4-18.8-18.8S58.7 27.3 69 27.3c10.4 0 18.8 8.4 18.8 18.8S79.4 64.8 69 64.8z" fill="#03c87f"/><path d="M14 46.1C14 28.5 25.2 7.9 40.9 2.3c1.3-.4.9-2.3-.4-2.3h-.1C18.1 0 0 23.7 0 46.1S18.1 91 40.4 91h.1c1.3 0 1.6-1.9.4-2.3C25.2 83.1 14 63.6 14 46.1zm111.4.5c0 17.6-11.2 38.2-26.9 43.7-1.3.4-.9 2.3.4 2.3h.1c22.3 0 40.4-23.7 40.4-46.1S121.3 1.7 99 1.7h-.1c-1.3 0-1.6 1.9-.4 2.3 15.7 5.6 26.9 25.1 26.9 42.6z" fill="#ffaa0a"/></svg>