<svg xmlns="http://www.w3.org/2000/svg" viewBox="0 0 152.1 95.2"><path opacity=".2" fill="none" stroke="gray" stroke-miterlimit="10" d="M.5.5h151.1v94.2H.5z"/><path d="M75.2 19.5c-15.4 0-27.9 12.5-27.9 27.9s12.5 27.9 27.9 27.9 27.9-12.5 27.9-27.9-12.5-27.9-27.9-27.9zm0 40.8c-7.1 0-12.9-5.8-12.9-12.9s5.8-12.9 12.9-12.9c7.1 0 12.9 5.8 12.9 12.9s-5.7 12.9-12.9 12.9z" fill="#0ada7f"/><path d="M37.6 47.4c0-12.1 7.7-26.3 18.6-30.2.9-.3.7-1.6-.3-1.6C40.5 15.6 28 32 28 47.4s12.5 31 27.9 31c.9 0 1.1-1.3.3-1.6-10.9-3.9-18.6-17.3-18.6-29.4zm76.9.4c0 12.1-7.7 26.3-18.6 30.2-.9.3-.7 1.6.3 1.6 15.4 0 27.9-16.4 27.9-31.8s-12.5-31-27.9-31c-.9 0-1.1 1.3-.3 1.6 10.8 3.9 18.6 17.3 18.6 29.4z" fill="#ffaa0a"/></svg>